<svg xmlns="http://www.w3.org/2000/svg" width="1002" height="1002" viewBox="0 0 1002 1002" fill="none" class="default-logo" aria-label="GrailHiiv" role="img">
<circle cx="501" cy="501" r="501" fill="#333333"></circle>
<path d="M487.488 220.789C489.437 219.909 493.147 218.856 495.74 218.439C498.334 218.031 502.751 217.881 505.565 218.101C508.378 218.322 512.622 219.147 514.996 219.933C517.369 220.719 526.746 225.929 535.823 231.517C544.901 237.105 562.412 247.81 574.727 255.308C587.043 262.806 612.861 278.642 632.101 290.502C651.341 302.37 676.09 317.601 687.116 324.36C702.521 333.807 708.337 337.824 712.266 341.753C715.088 344.559 718.161 348.449 719.104 350.399C720.055 352.348 721.376 356.057 722.051 358.651C723.112 362.722 723.277 371.666 723.277 424.473C723.27 476.337 723.089 486.382 722.075 490.885C721.415 493.801 719.764 498.139 718.397 500.513C717.037 502.886 714.302 506.384 708.73 511.72L712.73 515.744C714.931 517.961 717.815 521.89 719.143 524.484C720.472 527.078 721.957 531.495 722.452 534.308C723.073 537.884 723.27 555.23 723.097 592.075C722.877 639.31 722.712 645.133 721.509 648.662C720.77 650.824 718.648 654.879 716.801 657.669C714.719 660.829 711.803 663.917 709.123 665.827C706.749 667.517 692.602 676.335 677.685 685.421C662.768 694.506 635.543 711.137 617.168 722.376C598.801 733.614 578.28 746.166 571.583 750.268C564.887 754.363 551.086 762.875 540.932 769.178C530.777 775.474 520.34 781.494 517.747 782.555C514.312 783.954 511.003 784.583 505.565 784.858C500.983 785.093 496.424 784.866 493.775 784.253C491.402 783.71 487.504 782.296 485.13 781.109C482.757 779.922 472.492 773.823 462.338 767.559C452.184 761.303 430.783 748.217 414.789 738.495C398.795 728.765 367.672 709.856 345.626 696.471C323.58 683.086 302.887 670.582 299.649 668.688C296.403 666.794 292.253 663.721 290.414 661.866C288.575 660.003 285.832 655.924 284.323 652.789C282.806 649.653 281.218 644.968 280.786 642.375C280.33 639.616 280 617.241 280 588.538C279.992 558.012 280.291 537.782 280.794 535.094C281.242 532.721 282.696 528.477 284.024 525.663C285.588 522.354 288.017 519.037 295.42 511.909L291.011 507.586C288.292 504.93 285.651 501.299 284.134 498.155C282.782 495.341 281.297 490.751 280.841 487.938C280.315 484.684 280.016 462.033 280.016 425.456C280.016 390.576 280.322 366.078 280.81 362.974C281.25 360.168 282.798 355.389 284.26 352.363C285.722 349.338 288.449 345.251 290.335 343.286C292.214 341.321 294.634 339.152 295.719 338.46C296.796 337.776 311.477 328.809 328.335 318.537C345.194 308.264 377.024 288.663 399.07 274.98C421.115 261.297 449.236 243.865 461.552 236.249C473.868 228.625 485.539 221.67 487.488 220.789Z" fill="white"></path>
<path d="M301.912 489.313C300.505 486.507 300.442 483.662 300.529 429.723L300.631 373.073L305.048 375.635C307.484 377.05 320.963 384.909 335.016 393.099C349.06 401.296 374.352 416.205 391.21 426.234C408.069 436.262 429.643 449.073 439.153 454.7C448.662 460.336 463.163 468.887 471.376 473.704C479.589 478.53 488.077 483.081 490.239 483.827C493.092 484.818 496.644 485.179 503.207 485.171C511.082 485.156 512.85 484.896 516.961 483.159C519.554 482.067 542.716 468.604 568.44 453.239C594.163 437.874 626.52 418.571 640.353 410.35C654.185 402.137 673.905 390.411 684.169 384.296C694.433 378.189 703.024 373.458 703.252 373.78C703.48 374.102 703.645 398.773 703.621 428.599C703.597 459.683 703.267 484.173 702.843 485.973C702.434 487.702 701.452 490.005 700.65 491.082C699.856 492.166 696.925 494.555 694.143 496.41C691.36 498.257 677.944 506.541 664.324 514.809C650.704 523.085 633.02 533.821 625.027 538.678C617.034 543.527 589.086 560.511 562.938 576.411C531.202 595.714 513.817 605.821 510.673 606.827C507.105 607.959 504.716 608.21 500.849 607.856C498.035 607.597 493.972 606.56 491.811 605.554C489.649 604.54 470.016 592.931 448.191 579.743C426.365 566.563 392.051 545.932 371.955 533.892C351.858 521.859 328.689 507.979 320.476 503.051C312.263 498.124 305.056 493.683 304.466 493.18C303.869 492.669 302.721 490.932 301.912 489.313Z" fill="#333333"></path>
<path d="M301.676 534.906C302.36 533.499 303.861 531.557 305.016 530.583C306.164 529.616 307.728 528.815 308.482 528.815C309.245 528.815 326.04 538.403 345.814 550.129C365.597 561.855 405.098 585.465 433.604 602.591C462.11 619.724 487.574 634.602 490.191 635.663C494.215 637.29 496.283 637.588 503.592 637.62C510.146 637.643 513.282 637.282 516.56 636.142C518.941 635.309 531.673 628.102 544.854 620.109C558.042 612.124 583.325 596.869 601.048 586.204C618.771 575.539 645.65 559.285 660.78 550.082C675.909 540.879 690.016 532.241 692.123 530.882C695.722 528.571 696.084 528.492 697.97 529.6C699.078 530.245 700.713 532.013 701.601 533.53C703.197 536.234 703.22 537.193 703.22 641.715L700.862 645.487C698.685 648.961 696.092 650.737 666.674 668.845C649.171 679.628 630.599 691.024 625.412 694.176C620.225 697.328 599.005 710.335 578.256 723.083C557.507 735.831 534.699 749.899 527.563 754.363C520.434 758.82 513.18 762.977 511.451 763.606C509.722 764.227 506.012 764.753 503.199 764.761C499.819 764.785 496.896 764.274 494.553 763.252C492.612 762.411 485.539 758.411 478.835 754.355C472.138 750.308 455.689 740.287 442.288 732.09C428.888 723.892 405.373 709.596 390.024 700.314C374.682 691.04 356.464 680.006 349.548 675.801C342.631 671.604 329.758 663.776 320.947 658.416C308.365 650.769 304.474 648.002 300.819 642.493L300.623 589.976C300.45 543.37 300.568 537.169 301.676 534.906Z" fill="#333333"></path>
</svg>